<?xml version="1.0" encoding="UTF-8"?>
<svg width="64" height="64" viewBox="0 0 64 64" fill="none" xmlns="http://www.w3.org/2000/svg">
    <circle cx="32" cy="32" r="24" stroke="#6C63FF" stroke-width="2"/>
    <path d="M32 16V48" stroke="#6C63FF" stroke-width="2" stroke-linecap="round"/>
    <path d="M40 20H28C26.8954 20 26 20.8954 26 22C26 23.1046 26.8954 24 28 24H36C37.1046 24 38 24.8954 38 26C38 27.1046 37.1046 28 36 28H24" stroke="#6C63FF" stroke-width="2" stroke-linecap="round"/>
    <path d="M40 36H28C26.8954 36 26 36.8954 26 38C26 39.1046 26.8954 40 28 40H36C37.1046 40 38 40.8954 38 42C38 43.1046 37.1046 44 36 44H24" stroke="#6C63FF" stroke-width="2" stroke-linecap="round"/>
</svg>
