<?xml version="1.0" encoding="UTF-8"?>
<svg width="180" height="180" viewBox="0 0 180 180" fill="none" xmlns="http://www.w3.org/2000/svg">
    <circle cx="90" cy="90" r="85" stroke="#6C63FF" stroke-width="2" opacity="0.1"/>
    <circle cx="90" cy="90" r="65" stroke="#6C63FF" stroke-width="3" opacity="0.2"/>
    <g transform="translate(90 90)">
        <g id="gear" transform-origin="center">
            <path d="M0 -45C8.28427 -45 15 -38.2843 15 -30V30C15 38.2843 8.28427 45 0 45C-8.28427 45 -15 38.2843 -15 30V-30C-15 -38.2843 -8.28427 -45 0 -45Z" fill="#6C63FF"/>
            <path d="M39.0 -22.5C43.1421 -18.3579 43.1421 -11.6421 39.0 -7.5L7.5 24.0C3.35786 28.1421 -3.35786 28.1421 -7.5 24.0C-11.6421 19.8579 -11.6421 13.1421 -7.5 9.0L24.0 -22.5C28.1421 -26.6421 34.8579 -26.6421 39.0 -22.5Z" fill="#6C63FF"/>
            <path d="M-39.0 22.5C-43.1421 18.3579 -43.1421 11.6421 -39.0 7.5L-7.5 -24.0C-3.35786 -28.1421 3.35786 -28.1421 7.5 -24.0C11.6421 -19.8579 11.6421 -13.1421 7.5 -9.0L-24.0 22.5C-28.1421 26.6421 -34.8579 26.6421 -39.0 22.5Z" fill="#6C63FF"/>
        </g>
    </g>
    <style>
        #gear {
            animation: spin 10s linear infinite;
        }
        @keyframes spin {
            from { transform: rotate(0deg); }
            to { transform: rotate(360deg); }
        }
    </style>
</svg>
