<?xml version="1.0" encoding="UTF-8"?>
<svg width="800" height="800" viewBox="0 0 800 800" fill="none" xmlns="http://www.w3.org/2000/svg">
  <defs>
    <linearGradient id="gradient" x1="0%" y1="0%" x2="100%" y2="100%">
      <stop offset="0%" style="stop-color:#00bfff"/>
      <stop offset="100%" style="stop-color:#6c63ff"/>
    </linearGradient>
  </defs>
  <path d="M650 300C650 250 630 200 590 160C550 120 500 100 450 100H400C350 100 300 120 260 160C220 200 200 250 200 300C200 350 220 400 260 440C300 480 350 500 400 500H450C500 500 550 480 590 440C630 400 650 350 650 300Z" stroke="url(#gradient)" stroke-width="40" fill="none"/>
  <path d="M500 300C500 270 490 245 470 225C450 205 425 195 395 195C365 195 340 205 320 225C300 245 290 270 290 300C290 330 300 355 320 375C340 395 365 405 395 405C425 405 450 395 470 375C490 355 500 330 500 300Z" stroke="url(#gradient)" stroke-width="40" fill="none"/>
</svg>
